<?xml version="1.0" encoding="UTF-8" standalone="no"?>
<!-- Generator: Adobe Illustrator 19.0.0, SVG Export Plug-In . SVG Version: 6.00 Build 0)  -->

<svg
   version="1.1"
   id="Capa_1"
   x="0px"
   y="0px"
   viewBox="0 0 60 60"
   style="enable-background:new 0 0 60 60;"
   xml:space="preserve"
   sodipodi:docname="ic_cloud_marks.svg"
   inkscape:version="1.2 (dc2aedaf03, 2022-05-15)"
   xmlns:inkscape="http://www.inkscape.org/namespaces/inkscape"
   xmlns:sodipodi="http://sodipodi.sourceforge.net/DTD/sodipodi-0.dtd"
   xmlns="http://www.w3.org/2000/svg"
   xmlns:svg="http://www.w3.org/2000/svg"><defs
   id="defs360" /><sodipodi:namedview
   id="namedview358"
   pagecolor="#ffffff"
   bordercolor="#666666"
   borderopacity="1.0"
   inkscape:showpageshadow="2"
   inkscape:pageopacity="0.0"
   inkscape:pagecheckerboard="0"
   inkscape:deskcolor="#d1d1d1"
   showgrid="true"
   inkscape:zoom="7.0583334"
   inkscape:cx="18.488784"
   inkscape:cy="33.789846"
   inkscape:window-width="1138"
   inkscape:window-height="834"
   inkscape:window-x="464"
   inkscape:window-y="47"
   inkscape:window-maximized="0"
   inkscape:current-layer="Capa_1"
   showguides="true"><inkscape:grid
     type="xygrid"
     id="grid1629" /></sodipodi:namedview>
<path
   id="path325"
   style="stroke-width:0.783016"
   d="m 31.536668,9.4927899 c -4.251772,0 -8.369615,2.0841921 -10.920678,5.4863931 -0.05873,-0.03053 -0.120345,-0.05082 -0.179854,-0.079 -0.155037,-0.07517 -0.31181,-0.147584 -0.472328,-0.211792 -0.08926,-0.03523 -0.178894,-0.06617 -0.268941,-0.09749 -0.158951,-0.0556 -0.319661,-0.104966 -0.484093,-0.149599 -0.09005,-0.02427 -0.179792,-0.05023 -0.270622,-0.0706 -0.176178,-0.03993 -0.356222,-0.07008 -0.537882,-0.09749 -0.07908,-0.01175 -0.157135,-0.0267 -0.237003,-0.03529 -0.259961,-0.02897 -0.523005,-0.04707 -0.790014,-0.04707 -3.886104,0 -7.046249,3.160146 -7.046249,7.04625 0,0.09944 0.0055,0.197957 0.01177,0.295835 v 0.0034 c -3.2565597,1.775911 -5.4931157,5.49471 -5.4931157,9.217947 0,5.546097 4.5106091,10.058386 10.0567047,10.058386 h 19.190608 c 0.08143,0 0.162295,-0.0039 0.243728,-0.01009 l 0.04874,-0.0067 0.104215,0.0067 c 0.07986,0.0063 0.15983,0.01009 0.242047,0.01009 h 2.343147 v -1.566579 h -2.343147 c -0.0462,0 -0.09074,-0.0035 -0.136151,-0.0067 l -0.211791,-0.0084 -0.154641,0.0084 c -0.04463,0.0031 -0.09074,0.0067 -0.136152,0.0067 H 14.904359 c -4.68243,0 -8.4918057,-3.808593 -8.4918057,-8.491807 0,-3.252645 2.1185171,-6.628636 5.0375967,-8.027883 l 0.443753,-0.213472 v -0.492498 c 0,-0.09944 0.0063,-0.200766 0.01176,-0.302558 l 0.0067,-0.124385 -0.0084,-0.164727 c -0.0047,-0.06343 -0.01009,-0.127413 -0.01009,-0.19162 0,-3.021655 2.459695,-5.48135 5.48135,-5.48135 0.241952,0 0.480482,0.02079 0.717735,0.05211 0.06108,0.0078 0.122925,0.0184 0.183217,0.02857 0.209065,0.03445 0.414082,0.08079 0.616883,0.139513 0.0274,0.0078 0.05664,0.01235 0.08405,0.02017 0.22316,0.06813 0.440883,0.155038 0.653863,0.252132 0.0556,0.02505 0.109915,0.05238 0.164726,0.079 0.187924,0.09318 0.371903,0.194179 0.549648,0.309282 1.50887,0.977204 2.511235,2.672786 2.511235,4.600569 0,0.433008 0.350282,0.783291 0.78329,0.78329 0.433006,0 0.78329,-0.350282 0.78329,-0.78329 0,-2.156423 -0.976181,-4.086956 -2.506192,-5.380497 2.244904,-2.936306 5.941854,-4.798913 9.619676,-4.798913 6.064453,0 11.101244,4.804578 11.626648,10.875294 -0.800241,-0.05638 -1.998237,-0.08495 -3.197034,0.09749 -0.427526,0.06499 -0.722215,0.463341 -0.657224,0.890867 0.05873,0.387593 0.392659,0.665628 0.773205,0.665628 0.03915,0 0.0785,-0.0021 0.117661,-0.0084 1.743774,-0.263875 3.56119,-0.01657 3.667681,-0.0017 2.144183,0.407561 3.973141,1.7408 5.119961,3.53321 h 0.690841 c 0.464668,0 0.894164,0.12088 1.262341,0.319368 -1.177392,-2.54038 -3.431602,-4.535706 -6.178891,-5.257815 C 44.347617,15.124533 38.539172,9.4927899 31.536668,9.4927899 Z"
   sodipodi:nodetypes="sccccccccssccssscccsccscccsssccscccsscccccccssscscccscccsccs" />















<style
   type="text/css"
   id="style413">
	.st0{fill:#4B4B4B;}
</style><path
   d="m 32.733187,29.209784 c 0,-1.13718 1.059905,-2.070803 2.369384,-2.095777 v -0.0034 h 14.575663 c 1.326066,0 2.404926,0.934307 2.404926,2.083461 v 17.371758 l -7.503051,-4.33319 -7.503051,4.33319 V 35.663383 h -4.343871 z m 5.133666,16.077891 6.713256,-3.877497 6.713256,3.877497 V 29.194047 c 0,-0.771462 -0.724637,-1.399238 -1.615131,-1.399238 H 37.035199 c 0.388184,0.329112 0.664218,0.756752 0.775974,1.235366 l 3.95e-4,0.001 c 0.01777,0.07595 0.03159,0.153266 0.04067,0.23161 0.0095,0.07971 0.01461,0.160792 0.01461,0.242557 v 6.158014 z M 33.522982,34.979159 h 3.554076 v -5.47379 c 0,-0.116318 -0.01382,-0.229557 -0.03949,-0.339375 -0.152826,-0.646592 -0.73372,-1.162838 -1.472178,-1.318841 -0.01422,-0.0031 -0.02685,-0.0086 -0.04107,-0.01095 -0.09596,-0.01847 -0.196659,-0.02497 -0.297358,-0.03045 -0.03278,-0.0017 -0.06397,-0.0082 -0.09715,-0.0086 -0.886939,0.01266 -1.606837,0.643513 -1.606837,1.41258 v 5.769375 z"
   id="path6391"
   style="display:inline;fill:#808000;stroke-width:0.367569;stroke-dasharray:none" /><path
   style="display:inline;fill:#ffffff;fill-opacity:1;stroke-width:0.086216"
   d="M 13.446479,39.072707 C 10.473918,38.535265 7.9752863,36.424849 6.9670743,33.600016 6.5678963,32.481589 6.4522373,31.67244 6.5088793,30.39447 c 0.06008,-1.355664 0.271712,-2.150837 0.923812,-3.471152 0.8736461,-1.768883 2.1301421,-3.112301 3.7278597,-3.985747 l 0.75233,-0.411287 0.0021,-0.844243 c 0.0048,-1.984791 0.687126,-3.559958 2.00324,-4.624876 2.162203,-1.749519 5.174553,-1.64455 7.164068,0.249641 1.018892,0.970073 1.548349,2.049223 1.693437,3.451598 0.04319,0.417509 0.127699,0.837829 0.187788,0.934047 0.282528,0.452398 1.004949,0.464355 1.344387,0.02225 0.161118,-0.209851 0.13002,-1.343637 -0.05841,-2.129567 -0.301439,-1.257271 -0.84971,-2.258963 -1.749074,-3.195557 l -0.516354,-0.537729 0.260126,-0.326975 c 0.840395,-1.056365 2.444904,-2.336179 3.804324,-3.034466 2.901143,-1.490215 6.068669,-1.77628 9.017618,-0.814399 3.152539,1.028288 5.765035,3.444526 7.127479,6.592041 0.354043,0.817909 0.779111,2.336261 0.881149,3.147482 l 0.05549,0.441142 -1.574893,0.04025 c -1.746233,0.04462 -2.027448,0.117737 -2.217472,0.576497 -0.13105,0.316384 -0.05307,0.714611 0.181498,0.926894 0.160289,0.14506 0.359154,0.159501 2.258291,0.16399 1.897744,0.0045 2.13853,0.02195 2.713715,0.196736 0.777697,0.236339 1.701831,0.692842 2.388557,1.179899 0.519873,0.368719 1.467997,1.314512 1.836398,1.831884 l 0.195859,0.275057 -7.183583,0.02394 -7.183583,0.02393 -0.570274,0.280787 c -0.604217,0.2975 -0.968257,0.67999 -1.161365,1.220222 -0.08264,0.231201 -0.111603,1.165901 -0.11443,3.693525 l -0.0038,3.38399 h 2.155408 2.155408 v 1.767436 1.767434 l -11.445217,-0.0077 c -9.421063,-0.0064 -11.563548,-0.02912 -12.114269,-0.128694 z"
   id="path8655" /><path
   style="display:inline;fill:#fff691;fill-opacity:1;stroke-width:0.086216"
   d="m 37.868123,37.144215 c 0,-8.837191 0.02514,-8.366877 -0.482846,-9.032882 l -0.218863,-0.286944 6.536876,0.02365 6.536877,0.02365 0.332193,0.206508 c 0.182707,0.113579 0.405645,0.326965 0.495421,0.474189 0.157123,0.25767 0.163241,0.57327 0.163551,8.43668 1.73e-4,4.492948 -0.0204,8.168998 -0.04572,8.168998 -0.02532,0 -1.521329,-0.85311 -3.324459,-1.8958 l -3.278416,-1.895799 -3.077104,1.776623 c -1.692407,0.977144 -3.203195,1.852817 -3.357307,1.94594 l -0.280203,0.169316 z"
   id="path8795" /><path
   style="display:inline;fill:#fff691;fill-opacity:1;stroke-width:0.086216"
   d="m 33.557307,31.962691 c 0,-3.234359 0.0037,-3.264712 0.44562,-3.677351 0.80564,-0.752223 2.20263,-0.515154 2.808605,0.476619 0.190624,0.311987 0.193551,0.361328 0.193987,3.269676 l 4.41e-4,2.952909 h -1.724326 -1.724327 z"
   id="path9592" /></svg>
